<svg xmlns="http://www.w3.org/2000/svg" viewBox="0 0 64 64" fill="none">
  <rect width="64" height="64" rx="12" fill="url(#grad)"/>
  <defs>
    <linearGradient id="grad" x1="0" y1="0" x2="64" y2="64">
      <stop offset="0%" style="stop-color:#0ea5e9;stop-opacity:1" />
      <stop offset="100%" style="stop-color:#0284c7;stop-opacity:1" />
    </linearGradient>
  </defs>
  <!-- Pill/Medication Icon -->
  <rect x="20" y="22" width="24" height="14" rx="7" fill="white" stroke="white" stroke-width="2" opacity="0.9"/>
  <rect x="20" y="22" width="12" height="14" rx="7" fill="#0284c7" opacity="0.8"/>
  <!-- Heart Icon inside -->
  <path d="M32 42 C32 42 26 37 24 34 C23 33 23 31 24 30 C25 29 27 29 28 30 C28 30 30 32 32 34 C34 32 36 30 36 30 C37 29 39 29 40 30 C41 31 41 33 40 34 C38 37 32 42 32 42 Z" fill="white" opacity="0.9"/>
</svg>
